# Blender 4.3.0
# www.blender.org
mtllib base.mtl
o Cube.020
v 13.954719 0.100000 -14.974202
v 13.954719 0.127730 -14.974202
v 13.954720 0.100000 -7.969279
v 13.954720 0.127730 -7.969279
v 8.185956 0.100000 -14.974200
v 8.185956 0.127730 -14.974200
v 8.185958 0.100000 -7.969278
v 8.185958 0.127730 -7.969278
v 13.954720 0.100000 -12.148693
v 13.954720 0.127730 -12.148693
v 8.185957 0.100000 -12.148691
v 8.185957 0.127730 -12.148691
v 2.181745 0.127730 -12.148689
v 2.181745 0.127730 -14.974198
v 2.181745 0.100000 -14.974198
v 2.181745 0.100000 -12.148689
vn 1.0000 -0.0000 -0.0000
vn -0.0000 1.0000 -0.0000
vn -0.0000 -0.0000 -1.0000
vn -0.0000 -1.0000 -0.0000
vn -0.0000 -0.0000 1.0000
vn -1.0000 -0.0000 -0.0000
vt 0.375000 0.100840
vt 0.625000 0.100840
vt 0.625000 0.250000
vt 0.375000 0.250000
vt 0.915920 0.092021
vt 0.915920 0.795599
vt 0.069905 0.795599
vt 0.069905 0.092021
vt 0.375000 0.750000
vt 0.625000 0.750000
vt 0.625000 1.000000
vt 0.375000 1.000000
vt 0.033519 0.595880
vt 0.915700 0.595881
vt 0.915700 0.951717
vt 0.033519 0.951717
vt 0.064076 0.259050
vt 0.910030 0.259050
vt 0.910030 0.967570
vt 0.064076 0.967570
vt 0.125000 0.500000
vt 0.179838 0.826294
vt 0.625000 0.500000
vt 0.375000 0.500000
vt 0.016107 0.043433
vt 0.942063 0.043433
vt 0.942062 0.991782
vt 0.016106 0.991782
vt 0.036923 0.184253
vt 0.978702 0.184253
vt 0.978702 0.746156
vt 0.036923 0.746156
vt 0.625000 0.649160
vt 0.375000 0.649160
vt 0.375000 0.000000
vt 0.625000 0.000000
vt 0.108996 0.029713
vt 0.108996 0.433900
vt 0.824597 0.433900
vt 0.824598 0.029713
s 0
usemtl madera_de_piso
f 9/1/1 10/2/1 4/3/1 3/4/1
f 12/5/2 6/6/2 14/7/2 13/8/2
f 5/9/3 6/10/3 2/11/3 1/12/3
f 9/13/4 11/14/4 5/15/4 1/16/4
f 12/17/2 10/18/2 2/19/2 6/20/2
f 3/21/5 4/22/5 8/23/5 7/24/5
f 8/25/2 4/26/2 10/27/2 12/28/2
f 3/29/4 7/30/4 11/31/4 9/32/4
f 7/24/6 8/23/6 12/33/6 11/34/6
f 1/35/1 2/36/1 10/2/1 9/1/1
f 16/34/6 13/33/6 14/10/6 15/9/6
f 6/10/3 5/9/3 15/9/3 14/10/3
f 11/34/5 12/33/5 13/33/5 16/34/5
f 5/37/4 11/38/4 16/39/4 15/40/4
