# Blender 4.3.0
# www.blender.org
mtllib base.mtl
o Postes_de_madera.011
v 3.418844 0.117730 -15.974908
v 3.418844 1.000703 -15.954002
v 3.466220 0.117730 -15.955284
v 3.451438 1.000703 -15.940502
v 3.485844 0.117730 -15.907907
v 3.464939 1.000703 -15.907907
v 3.466220 0.117730 -15.860531
v 3.451438 1.000703 -15.875313
v 3.418844 0.117730 -15.840907
v 3.418844 1.000703 -15.861813
v 3.371467 0.117730 -15.860531
v 3.386249 1.000703 -15.875313
v 3.351843 0.117730 -15.907907
v 3.372748 1.000703 -15.907907
v 3.371467 0.117730 -15.955284
v 3.386249 1.000703 -15.940502
v 4.504246 0.117730 -15.974908
v 4.504246 1.000703 -15.954002
v 4.551622 0.117730 -15.955284
v 4.536840 1.000703 -15.940502
v 4.571246 0.117730 -15.907907
v 4.550341 1.000703 -15.907907
v 4.551622 0.117730 -15.860531
v 4.536840 1.000703 -15.875313
v 4.504246 0.117730 -15.840907
v 4.504246 1.000703 -15.861813
v 4.456869 0.117730 -15.860531
v 4.471652 1.000703 -15.875313
v 4.437245 0.117730 -15.907907
v 4.458150 1.000703 -15.907907
v 4.456869 0.117730 -15.955284
v 4.471652 1.000703 -15.940502
v 5.589648 0.117730 -15.974908
v 5.589648 1.000703 -15.954002
v 5.637024 0.117730 -15.955284
v 5.622242 1.000703 -15.940502
v 5.656648 0.117730 -15.907907
v 5.635743 1.000703 -15.907907
v 5.637024 0.117730 -15.860531
v 5.622242 1.000703 -15.875313
v 5.589648 0.117730 -15.840907
v 5.589648 1.000703 -15.861813
v 5.542272 0.117730 -15.860531
v 5.557054 1.000703 -15.875313
v 5.522648 0.117730 -15.907907
v 5.543552 1.000703 -15.907907
v 5.542272 0.117730 -15.955284
v 5.557054 1.000703 -15.940502
v 6.675050 0.117730 -15.974908
v 6.675050 1.000703 -15.954002
v 6.722426 0.117730 -15.955284
v 6.707644 1.000703 -15.940502
v 6.742050 0.117730 -15.907907
v 6.721145 1.000703 -15.907907
v 6.722426 0.117730 -15.860531
v 6.707644 1.000703 -15.875313
v 6.675050 0.117730 -15.840907
v 6.675050 1.000703 -15.861813
v 6.627673 0.117730 -15.860531
v 6.642456 1.000703 -15.875313
v 6.608049 0.117730 -15.907907
v 6.628954 1.000703 -15.907907
v 6.627673 0.117730 -15.955284
v 6.642456 1.000703 -15.940502
v 7.760452 0.117730 -15.974908
v 7.760452 1.000703 -15.954002
v 7.807828 0.117730 -15.955284
v 7.793046 1.000703 -15.940502
v 7.827452 0.117730 -15.907907
v 7.806547 1.000703 -15.907907
v 7.807828 0.117730 -15.860531
v 7.793046 1.000703 -15.875313
v 7.760452 0.117730 -15.840907
v 7.760452 1.000703 -15.861813
v 7.713076 0.117730 -15.860531
v 7.727858 1.000703 -15.875313
v 7.693452 0.117730 -15.907907
v 7.714356 1.000703 -15.907907
v 7.713076 0.117730 -15.955284
v 7.727858 1.000703 -15.940502
v 8.845854 0.117730 -15.974908
v 8.845854 1.000703 -15.954002
v 8.893230 0.117730 -15.955284
v 8.878448 1.000703 -15.940502
v 8.912854 0.117730 -15.907907
v 8.891949 1.000703 -15.907907
v 8.893230 0.117730 -15.860531
v 8.878448 1.000703 -15.875313
v 8.845854 0.117730 -15.840907
v 8.845854 1.000703 -15.861813
v 8.798477 0.117730 -15.860531
v 8.813259 1.000703 -15.875313
v 8.778853 0.117730 -15.907907
v 8.799759 1.000703 -15.907907
v 8.798477 0.117730 -15.955284
v 8.813259 1.000703 -15.940502
v 9.931256 0.117730 -15.974908
v 9.931256 1.000703 -15.954002
v 9.978633 0.117730 -15.955284
v 9.963850 1.000703 -15.940502
v 9.998257 0.117730 -15.907907
v 9.977351 1.000703 -15.907907
v 9.978633 0.117730 -15.860531
v 9.963850 1.000703 -15.875313
v 9.931256 0.117730 -15.840907
v 9.931256 1.000703 -15.861813
v 9.883880 0.117730 -15.860531
v 9.898662 1.000703 -15.875313
v 9.864256 0.117730 -15.907907
v 9.885161 1.000703 -15.907907
v 9.883880 0.117730 -15.955284
v 9.898662 1.000703 -15.940502
v 11.016659 0.117730 -15.974908
v 11.016659 1.000703 -15.954002
v 11.064035 0.117730 -15.955284
v 11.049253 1.000703 -15.940502
v 11.083659 0.117730 -15.907907
v 11.062754 1.000703 -15.907907
v 11.064035 0.117730 -15.860531
v 11.049253 1.000703 -15.875313
v 11.016659 0.117730 -15.840907
v 11.016659 1.000703 -15.861813
v 10.969282 0.117730 -15.860531
v 10.984064 1.000703 -15.875313
v 10.949658 0.117730 -15.907907
v 10.970564 1.000703 -15.907907
v 10.969282 0.117730 -15.955284
v 10.984064 1.000703 -15.940502
v 12.102061 0.117730 -15.974908
v 12.102061 1.000703 -15.954002
v 12.149438 0.117730 -15.955284
v 12.134655 1.000703 -15.940502
v 12.169062 0.117730 -15.907907
v 12.148156 1.000703 -15.907907
v 12.149438 0.117730 -15.860531
v 12.134655 1.000703 -15.875313
v 12.102061 0.117730 -15.840907
v 12.102061 1.000703 -15.861813
v 12.054685 0.117730 -15.860531
v 12.069467 1.000703 -15.875313
v 12.035061 0.117730 -15.907907
v 12.055966 1.000703 -15.907907
v 12.054685 0.117730 -15.955284
v 12.069467 1.000703 -15.940502
v 13.187464 0.117730 -15.974908
v 13.187464 1.000703 -15.954002
v 13.234840 0.117730 -15.955284
v 13.220058 1.000703 -15.940502
v 13.254464 0.117730 -15.907907
v 13.233559 1.000703 -15.907907
v 13.234840 0.117730 -15.860531
v 13.220058 1.000703 -15.875313
v 13.187464 0.117730 -15.840907
v 13.187464 1.000703 -15.861813
v 13.140087 0.117730 -15.860531
v 13.154869 1.000703 -15.875313
v 13.120463 0.117730 -15.907907
v 13.141369 1.000703 -15.907907
v 13.140087 0.117730 -15.955284
v 13.154869 1.000703 -15.940502
v 14.272866 0.117730 -15.974908
v 14.272866 1.000703 -15.954002
v 14.320243 0.117730 -15.955284
v 14.305460 1.000703 -15.940502
v 14.339867 0.117730 -15.907907
v 14.318961 1.000703 -15.907907
v 14.320243 0.117730 -15.860531
v 14.305460 1.000703 -15.875313
v 14.272866 0.117730 -15.840907
v 14.272866 1.000703 -15.861813
v 14.225490 0.117730 -15.860531
v 14.240272 1.000703 -15.875313
v 14.205866 0.117730 -15.907907
v 14.226771 1.000703 -15.907907
v 14.225490 0.117730 -15.955284
v 14.240272 1.000703 -15.940502
vn 0.3826 0.0219 -0.9237
vn 0.9237 0.0219 -0.3826
vn 0.9237 0.0219 0.3826
vn 0.3826 0.0219 0.9237
vn -0.3826 0.0219 0.9237
vn -0.9237 0.0219 0.3826
vn -0.0000 1.0000 -0.0000
vn -0.9237 0.0219 -0.3826
vn -0.3826 0.0219 -0.9237
vn -0.0000 -1.0000 -0.0000
vn 0.9236 0.0219 -0.3826
vn 0.9236 0.0219 0.3826
vt 1.000000 0.500000
vt 1.000000 1.000000
vt 0.875000 1.000000
vt 0.875000 0.500000
vt 0.750000 1.000000
vt 0.750000 0.500000
vt 0.625000 1.000000
vt 0.625000 0.500000
vt 0.500000 1.000000
vt 0.500000 0.500000
vt 0.375000 1.000000
vt 0.375000 0.500000
vt 0.250000 1.000000
vt 0.250000 0.500000
vt 0.419706 0.419706
vt 0.250000 0.490000
vt 0.080294 0.419706
vt 0.010000 0.250000
vt 0.080294 0.080294
vt 0.250000 0.010000
vt 0.419706 0.080294
vt 0.490000 0.250000
vt 0.125000 1.000000
vt 0.125000 0.500000
vt 0.000000 1.000000
vt 0.000000 0.500000
vt 0.750000 0.490000
vt 0.919706 0.419706
vt 0.990000 0.250000
vt 0.919706 0.080294
vt 0.750000 0.010000
vt 0.580294 0.080294
vt 0.510000 0.250000
vt 0.580294 0.419706
s 0
usemtl Poestes_de_mader
f 1/1/1 2/2/1 4/3/1 3/4/1
f 3/4/2 4/3/2 6/5/2 5/6/2
f 5/6/3 6/5/3 8/7/3 7/8/3
f 7/8/4 8/7/4 10/9/4 9/10/4
f 9/10/5 10/9/5 12/11/5 11/12/5
f 11/12/6 12/11/6 14/13/6 13/14/6
f 4/15/7 2/16/7 16/17/7 14/18/7 12/19/7 10/20/7 8/21/7 6/22/7
f 13/14/8 14/13/8 16/23/8 15/24/8
f 15/24/9 16/23/9 2/25/9 1/26/9
f 1/27/10 3/28/10 5/29/10 7/30/10 9/31/10 11/32/10 13/33/10 15/34/10
f 17/1/1 18/2/1 20/3/1 19/4/1
f 19/4/2 20/3/2 22/5/2 21/6/2
f 21/6/3 22/5/3 24/7/3 23/8/3
f 23/8/4 24/7/4 26/9/4 25/10/4
f 25/10/5 26/9/5 28/11/5 27/12/5
f 27/12/6 28/11/6 30/13/6 29/14/6
f 20/15/7 18/16/7 32/17/7 30/18/7 28/19/7 26/20/7 24/21/7 22/22/7
f 29/14/8 30/13/8 32/23/8 31/24/8
f 31/24/9 32/23/9 18/25/9 17/26/9
f 17/27/10 19/28/10 21/29/10 23/30/10 25/31/10 27/32/10 29/33/10 31/34/10
f 33/1/1 34/2/1 36/3/1 35/4/1
f 35/4/2 36/3/2 38/5/2 37/6/2
f 37/6/3 38/5/3 40/7/3 39/8/3
f 39/8/4 40/7/4 42/9/4 41/10/4
f 41/10/5 42/9/5 44/11/5 43/12/5
f 43/12/6 44/11/6 46/13/6 45/14/6
f 36/15/7 34/16/7 48/17/7 46/18/7 44/19/7 42/20/7 40/21/7 38/22/7
f 45/14/8 46/13/8 48/23/8 47/24/8
f 47/24/9 48/23/9 34/25/9 33/26/9
f 33/27/10 35/28/10 37/29/10 39/30/10 41/31/10 43/32/10 45/33/10 47/34/10
f 49/1/1 50/2/1 52/3/1 51/4/1
f 51/4/2 52/3/2 54/5/2 53/6/2
f 53/6/3 54/5/3 56/7/3 55/8/3
f 55/8/4 56/7/4 58/9/4 57/10/4
f 57/10/5 58/9/5 60/11/5 59/12/5
f 59/12/6 60/11/6 62/13/6 61/14/6
f 52/15/7 50/16/7 64/17/7 62/18/7 60/19/7 58/20/7 56/21/7 54/22/7
f 61/14/8 62/13/8 64/23/8 63/24/8
f 63/24/9 64/23/9 50/25/9 49/26/9
f 49/27/10 51/28/10 53/29/10 55/30/10 57/31/10 59/32/10 61/33/10 63/34/10
f 65/1/1 66/2/1 68/3/1 67/4/1
f 67/4/2 68/3/2 70/5/2 69/6/2
f 69/6/3 70/5/3 72/7/3 71/8/3
f 71/8/4 72/7/4 74/9/4 73/10/4
f 73/10/5 74/9/5 76/11/5 75/12/5
f 75/12/6 76/11/6 78/13/6 77/14/6
f 68/15/7 66/16/7 80/17/7 78/18/7 76/19/7 74/20/7 72/21/7 70/22/7
f 77/14/8 78/13/8 80/23/8 79/24/8
f 79/24/9 80/23/9 66/25/9 65/26/9
f 65/27/10 67/28/10 69/29/10 71/30/10 73/31/10 75/32/10 77/33/10 79/34/10
f 81/1/1 82/2/1 84/3/1 83/4/1
f 83/4/2 84/3/2 86/5/2 85/6/2
f 85/6/3 86/5/3 88/7/3 87/8/3
f 87/8/4 88/7/4 90/9/4 89/10/4
f 89/10/5 90/9/5 92/11/5 91/12/5
f 91/12/6 92/11/6 94/13/6 93/14/6
f 84/15/7 82/16/7 96/17/7 94/18/7 92/19/7 90/20/7 88/21/7 86/22/7
f 93/14/8 94/13/8 96/23/8 95/24/8
f 95/24/9 96/23/9 82/25/9 81/26/9
f 81/27/10 83/28/10 85/29/10 87/30/10 89/31/10 91/32/10 93/33/10 95/34/10
f 97/1/1 98/2/1 100/3/1 99/4/1
f 99/4/2 100/3/2 102/5/2 101/6/2
f 101/6/3 102/5/3 104/7/3 103/8/3
f 103/8/4 104/7/4 106/9/4 105/10/4
f 105/10/5 106/9/5 108/11/5 107/12/5
f 107/12/6 108/11/6 110/13/6 109/14/6
f 100/15/7 98/16/7 112/17/7 110/18/7 108/19/7 106/20/7 104/21/7 102/22/7
f 109/14/8 110/13/8 112/23/8 111/24/8
f 111/24/9 112/23/9 98/25/9 97/26/9
f 97/27/10 99/28/10 101/29/10 103/30/10 105/31/10 107/32/10 109/33/10 111/34/10
f 113/1/1 114/2/1 116/3/1 115/4/1
f 115/4/2 116/3/2 118/5/2 117/6/2
f 117/6/3 118/5/3 120/7/3 119/8/3
f 119/8/4 120/7/4 122/9/4 121/10/4
f 121/10/5 122/9/5 124/11/5 123/12/5
f 123/12/6 124/11/6 126/13/6 125/14/6
f 116/15/7 114/16/7 128/17/7 126/18/7 124/19/7 122/20/7 120/21/7 118/22/7
f 125/14/8 126/13/8 128/23/8 127/24/8
f 127/24/9 128/23/9 114/25/9 113/26/9
f 113/27/10 115/28/10 117/29/10 119/30/10 121/31/10 123/32/10 125/33/10 127/34/10
f 129/1/1 130/2/1 132/3/1 131/4/1
f 131/4/2 132/3/2 134/5/2 133/6/2
f 133/6/3 134/5/3 136/7/3 135/8/3
f 135/8/4 136/7/4 138/9/4 137/10/4
f 137/10/5 138/9/5 140/11/5 139/12/5
f 139/12/6 140/11/6 142/13/6 141/14/6
f 132/15/7 130/16/7 144/17/7 142/18/7 140/19/7 138/20/7 136/21/7 134/22/7
f 141/14/8 142/13/8 144/23/8 143/24/8
f 143/24/9 144/23/9 130/25/9 129/26/9
f 129/27/10 131/28/10 133/29/10 135/30/10 137/31/10 139/32/10 141/33/10 143/34/10
f 145/1/1 146/2/1 148/3/1 147/4/1
f 147/4/2 148/3/2 150/5/2 149/6/2
f 149/6/3 150/5/3 152/7/3 151/8/3
f 151/8/4 152/7/4 154/9/4 153/10/4
f 153/10/5 154/9/5 156/11/5 155/12/5
f 155/12/6 156/11/6 158/13/6 157/14/6
f 148/15/7 146/16/7 160/17/7 158/18/7 156/19/7 154/20/7 152/21/7 150/22/7
f 157/14/8 158/13/8 160/23/8 159/24/8
f 159/24/9 160/23/9 146/25/9 145/26/9
f 145/27/10 147/28/10 149/29/10 151/30/10 153/31/10 155/32/10 157/33/10 159/34/10
f 161/1/1 162/2/1 164/3/1 163/4/1
f 163/4/11 164/3/11 166/5/11 165/6/11
f 165/6/12 166/5/12 168/7/12 167/8/12
f 167/8/4 168/7/4 170/9/4 169/10/4
f 169/10/5 170/9/5 172/11/5 171/12/5
f 171/12/6 172/11/6 174/13/6 173/14/6
f 164/15/7 162/16/7 176/17/7 174/18/7 172/19/7 170/20/7 168/21/7 166/22/7
f 173/14/8 174/13/8 176/23/8 175/24/8
f 175/24/9 176/23/9 162/25/9 161/26/9
f 161/27/10 163/28/10 165/29/10 167/30/10 169/31/10 171/32/10 173/33/10 175/34/10
