# Blender 4.2.3 LTS
# www.blender.org
mtllib soporte_puerta_ox.mtl
o 2.2_Soporte_de_puerta_oxidada
v 4.341742 0.803178 -15.100183
v 4.341742 0.837922 -15.100183
v 2.181741 0.803178 -15.100183
v 2.181741 0.837922 -15.100183
v 4.341742 0.803178 -15.139019
v 4.341742 0.837922 -15.139019
v 2.181741 0.803178 -15.139019
v 2.181741 0.837922 -15.139019
v 4.341742 0.820550 -15.100183
v 2.181741 0.820550 -15.100183
v 2.181741 0.820550 -15.139019
v 4.341742 0.820550 -15.139019
v 2.181741 0.803178 -15.107950
v 2.181741 0.837922 -15.107950
v 4.341742 0.803178 -15.107950
v 4.341742 0.837922 -15.107950
v 4.341742 0.820550 -15.107950
v 2.181741 0.820550 -15.107950
v 2.181741 0.837922 -15.131251
v 4.341742 0.803178 -15.131251
v 2.181741 0.820550 -15.131251
v 2.181741 0.803178 -15.131251
v 4.341742 0.837922 -15.131251
v 4.341742 0.820550 -15.131251
v 2.181741 0.810127 -15.139019
v 4.341742 0.810127 -15.139019
v 4.341742 0.810127 -15.131251
v 2.181741 0.810127 -15.131251
v 2.181741 0.810127 -15.100183
v 4.341742 0.810127 -15.100183
v 2.181741 0.810127 -15.107950
v 4.341742 0.810127 -15.107950
v 2.181741 0.837922 -15.137077
v 4.341742 0.803178 -15.137077
v 2.181741 0.820550 -15.137077
v 2.181741 0.803178 -15.137077
v 4.341742 0.837922 -15.137077
v 4.341742 0.820550 -15.137077
v 4.341742 0.810127 -15.137077
v 2.181741 0.810127 -15.137077
v 2.181741 0.803178 -15.133193
v 4.341742 0.837922 -15.133193
v 4.341742 0.820550 -15.133193
v 4.341742 0.810127 -15.133193
v 2.181741 0.837922 -15.133193
v 4.341742 0.803178 -15.133193
v 2.181741 0.820550 -15.133193
v 2.181741 0.810127 -15.133193
v 2.181741 0.803178 -15.106008
v 4.341742 0.837922 -15.106008
v 4.341742 0.820550 -15.106008
v 2.181741 0.837922 -15.106008
v 4.341742 0.803178 -15.106008
v 2.181741 0.820550 -15.106008
v 2.181741 0.810127 -15.106008
v 4.341742 0.810127 -15.106008
v 2.181741 0.803178 -15.102125
v 4.341742 0.837922 -15.102125
v 4.341742 0.820550 -15.102125
v 4.341742 0.810127 -15.102125
v 2.181741 0.837922 -15.102125
v 4.341742 0.803178 -15.102125
v 2.181741 0.820550 -15.102125
v 2.181741 0.810127 -15.102125
v 2.181741 0.806653 -15.139019
v 4.341742 0.806653 -15.139019
v 4.341742 0.806653 -15.131251
v 2.181741 0.806653 -15.131251
v 2.181741 0.806653 -15.137077
v 4.341742 0.806653 -15.137077
v 2.181741 0.806653 -15.133193
v 4.341742 0.806653 -15.133193
v 2.181741 0.806653 -15.100183
v 2.181741 0.806653 -15.107950
v 4.341742 0.806653 -15.107950
v 4.341742 0.806653 -15.100183
v 4.341742 0.806653 -15.106008
v 2.181741 0.806653 -15.106008
v 2.181741 0.806653 -15.102125
v 4.341742 0.806653 -15.102125
vn -0.0000 -0.0000 1.0000
vn -1.0000 -0.0000 -0.0000
vn -0.0000 -0.0000 -1.0000
vn 1.0000 -0.0000 -0.0000
vn -0.0000 -1.0000 -0.0000
vn -0.0000 1.0000 -0.0000
vt 0.102840 0.893412
vt 0.102840 0.832360
vt 0.923047 0.832360
vt 0.923047 0.893412
vt 0.528960 0.782483
vt 0.528960 0.950388
vt 0.520050 0.950388
vt 0.520050 0.782482
vt 0.090988 0.044978
vt 0.090988 -0.005432
vt 0.784000 -0.005432
vt 0.784000 0.044978
vt 0.715856 0.792509
vt 0.715856 0.953387
vt 0.707684 0.953387
vt 0.707684 0.792509
vt 0.223891 0.944958
vt 0.223891 0.940693
vt 0.251675 0.940693
vt 0.251675 0.944958
vt 0.068813 0.823232
vt 0.068813 0.813879
vt 0.792206 0.813879
vt 0.792206 0.823232
vt 0.715856 0.705703
vt 0.707684 0.705703
vt 0.084063 0.926675
vt 0.084063 0.905648
vt 0.807736 0.905648
vt 0.807736 0.926675
vt 0.528960 0.683649
vt 0.520050 0.683649
vt 0.102840 0.926354
vt 0.923047 0.926354
vt 0.208461 0.599845
vt 0.180033 0.599845
vt 0.195900 0.540835
vt 0.208461 0.540835
vt 0.068813 0.944724
vt 0.068813 0.840898
vt 0.792206 0.840898
vt 0.792206 0.944724
vt 0.542604 0.910021
vt 0.542604 0.887515
vt 0.654549 0.887515
vt 0.654549 0.910021
vt 0.822013 0.792509
vt 0.822013 0.953387
vt 0.731292 0.953387
vt 0.731292 0.792509
vt 0.650353 0.782482
vt 0.650353 0.950388
vt 0.643246 0.950388
vt 0.643246 0.782482
vt 0.829969 0.792509
vt 0.829969 0.953387
vt 0.068813 0.953830
vt 0.792206 0.953830
vt 0.210618 0.789736
vt 0.210618 0.738684
vt 0.200371 0.738684
vt 0.200371 0.789736
vt 0.548560 0.950388
vt 0.548560 0.782483
vt 0.151356 0.599845
vt 0.151356 0.540957
vt 0.140614 0.540157
vt 0.140614 0.599845
vt 0.174760 0.540957
vt 0.191845 0.540957
vt 0.829969 0.666246
vt 0.829969 0.697812
vt 0.822013 0.697812
vt 0.822013 0.666246
vt 0.528960 0.650705
vt 0.520050 0.650705
vt 0.084063 0.933684
vt 0.807736 0.933684
vt 0.331603 0.664677
vt 0.331603 0.599845
vt 0.326525 0.599845
vt 0.327478 0.664677
vt 0.650353 0.654822
vt 0.650353 0.691885
vt 0.643246 0.691885
vt 0.643246 0.654822
vt 0.102840 0.827421
vt 0.102840 0.813945
vt 0.156595 0.813945
vt 0.156595 0.827421
vt 0.715856 0.670192
vt 0.707684 0.670192
vt 0.849331 0.666246
vt 0.849331 0.697812
vt 0.840794 0.697812
vt 0.840794 0.666246
vt 0.849331 0.792509
vt 0.840794 0.792509
vt 0.068813 0.975989
vt 0.068813 0.966219
vt 0.792206 0.966219
vt 0.792206 0.975989
vt 0.849331 0.953387
vt 0.840794 0.953387
vt 0.223891 0.950366
vt 0.251675 0.950366
vt 0.540257 0.782483
vt 0.540257 0.950388
vt 0.223891 0.954340
vt 0.251675 0.954340
vt 0.548560 0.650705
vt 0.548560 0.683649
vt 0.540257 0.683649
vt 0.540257 0.650705
vt 0.230836 0.540835
vt 0.230836 0.599845
vt 0.731292 0.670192
vt 0.731292 0.705703
vt 0.724481 0.705703
vt 0.724481 0.670192
vt 0.896902 0.854763
vt 0.088868 0.854763
vt 0.088868 0.929652
vt 0.896902 0.929652
vt 0.659356 0.782482
vt 0.659356 0.950388
vt 0.542604 0.944224
vt 0.654550 0.944224
vt 0.271101 0.664677
vt 0.271101 0.599845
vt 0.230836 0.664677
vt 0.313070 0.599845
vt 0.313070 0.664677
vt 0.319968 0.664677
vt 0.319305 0.599845
vt 0.068813 0.833104
vt 0.792206 0.833104
vt 0.724481 0.953387
vt 0.724481 0.792509
vt 0.667886 0.691885
vt 0.667886 0.782482
vt 0.659356 0.691885
vt 0.542604 0.963640
vt 0.654549 0.963640
vt 0.667886 0.950388
vt 0.667886 0.654822
vt 0.659356 0.654822
vt 0.323137 0.664677
vt 0.322669 0.599845
vt 0.840794 0.634681
vt 0.829969 0.634681
vt 0.548560 0.617760
vt 0.540257 0.617760
vt 0.849331 0.634681
vt 0.528960 0.617760
vt 0.084063 0.940693
vt 0.807736 0.940693
vt 0.520050 0.617760
vt 0.822013 0.634681
vt 0.233116 0.789736
vt 0.233116 0.738684
vt 0.724481 0.634681
vt 0.715856 0.634681
vt 0.667886 0.617760
vt 0.659356 0.617760
vt 0.650353 0.617760
vt 0.731292 0.634681
vt 0.707684 0.634681
vt 0.102840 0.840897
vt 0.156595 0.840897
vt 0.643246 0.617760
vt 0.174760 0.599845
s 0
usemtl Material.090
f 9/1/1 2/2/1 4/3/1 10/4/1
f 35/5/2 33/6/2 8/7/2 11/8/2
f 11/9/3 8/10/3 6/11/3 12/12/3
f 59/13/4 58/14/4 2/15/4 9/16/4
f 36/17/5 7/18/5 5/19/5 34/20/5
f 61/21/6 4/22/6 2/23/6 58/24/6
f 60/25/4 59/13/4 9/16/4 30/26/4
f 25/27/3 11/28/3 12/29/3 26/30/3
f 40/31/2 35/5/2 11/8/2 25/32/2
f 30/33/1 9/1/1 10/4/1 29/34/1
f 77/35/1 56/36/1 55/37/1 78/38/1
f 19/39/6 14/40/6 16/41/6 23/42/6
f 49/43/5 13/44/5 15/45/5 53/46/5
f 24/47/4 23/48/4 16/49/4 17/50/4
f 54/51/2 52/52/2 14/53/2 18/54/2
f 43/55/4 42/56/4 23/48/4 24/47/4
f 45/57/6 19/39/6 23/42/6 42/58/6
f 67/59/1 68/60/1 22/61/1 20/62/1
f 18/54/2 14/53/2 19/63/2 21/64/2
f 74/65/3 75/66/3 15/67/3 13/68/3
f 55/37/6 56/36/6 32/69/6 31/70/6
f 72/71/4 44/72/4 27/73/4 67/74/4
f 69/75/2 40/31/2 25/32/2 65/76/2
f 65/77/3 25/27/3 26/30/3 66/78/3
f 28/79/6 27/80/6 44/81/6 48/82/6
f 78/83/2 55/84/2 31/85/2 74/86/2
f 76/87/1 30/88/1 29/89/1 73/90/1
f 80/91/4 60/25/4 30/26/4 76/92/4
f 66/93/4 26/94/4 39/95/4 70/96/4
f 26/94/4 12/97/4 38/98/4 39/95/4
f 8/99/6 33/100/6 37/101/6 6/102/6
f 12/97/4 6/103/4 37/104/4 38/98/4
f 41/105/5 36/17/5 34/20/5 46/106/5
f 47/107/2 45/108/2 33/6/2 35/5/2
f 21/64/2 19/63/2 45/108/2 47/107/2
f 22/109/5 41/105/5 46/106/5 20/110/5
f 68/111/2 28/112/2 48/113/2 71/114/2
f 78/38/6 79/115/6 80/116/6 77/35/6
f 33/100/6 45/57/6 42/58/6 37/101/6
f 38/98/4 37/104/4 42/56/4 43/55/4
f 75/117/4 32/118/4 56/119/4 77/120/4
f 35/121/5 38/122/5 59/123/5 63/124/5
f 63/125/2 61/126/2 52/52/2 54/51/2
f 57/127/5 49/43/5 53/46/5 62/128/5
f 63/129/3 59/130/3 80/116/3 79/131/3
f 38/132/1 35/133/1 69/134/1 70/135/1
f 14/40/6 52/136/6 50/137/6 16/41/6
f 17/50/4 16/49/4 50/138/4 51/139/4
f 29/140/2 10/141/2 63/125/2 64/142/2
f 3/143/5 57/127/5 62/128/5 1/144/5
f 10/141/2 4/145/2 61/126/2 63/125/2
f 73/146/2 29/140/2 64/142/2 79/147/2
f 70/135/6 69/134/6 71/148/6 72/149/6
f 71/148/3 48/82/3 44/81/3 72/149/3
f 52/136/6 61/21/6 58/24/6 50/137/6
f 51/139/4 50/138/4 58/14/4 59/13/4
f 34/150/4 70/96/4 72/71/4 46/151/4
f 22/152/2 68/111/2 71/114/2 41/153/2
f 5/154/4 66/93/4 70/96/4 34/150/4
f 41/153/2 71/114/2 69/75/2 36/155/2
f 7/156/3 65/77/3 66/78/3 5/157/3
f 36/155/2 69/75/2 65/76/2 7/158/2
f 46/151/4 72/71/4 67/74/4 20/159/4
f 27/160/1 28/161/1 68/60/1 67/59/1
f 53/162/4 77/120/4 80/91/4 62/163/4
f 3/164/2 73/146/2 79/147/2 57/165/2
f 57/165/2 79/147/2 78/83/2 49/166/2
f 15/167/4 75/117/4 77/120/4 53/162/4
f 62/163/4 80/91/4 76/92/4 1/168/4
f 1/169/1 76/87/1 73/90/1 3/170/1
f 49/166/2 78/83/2 74/86/2 13/171/2
f 31/172/3 32/69/3 75/66/3 74/65/3
