# Blender 4.2.3 LTS
# www.blender.org
mtllib parkin.mtl
o estacionamiento
v 1.181038 -0.000000 -0.167549
v 1.181038 0.100000 -0.167549
v 1.181038 -0.000000 -6.853566
v 1.181038 0.100000 -6.853566
v 14.955425 -0.000000 -0.167549
v 14.955425 0.100000 -0.167549
v 14.955425 -0.000000 -6.853566
v 14.955425 0.100000 -6.853566
v 2.558477 -0.000000 -6.853566
v 2.558477 0.100000 -6.853566
v 2.558477 -0.000000 -0.167549
v 2.558477 0.100000 -0.167549
v 13.095882 0.100000 -6.853566
v 13.095882 -0.000000 -0.167549
v 13.095882 -0.000000 -6.853566
v 13.095882 0.100000 -0.167549
v 1.181038 -0.000000 0.682842
v 1.181038 0.100000 0.682842
v 14.955425 0.100000 0.682842
v 14.955425 -0.000000 0.682842
v 13.095882 -0.000000 0.682842
v 2.558477 0.100000 0.682842
v 2.558477 -0.000000 0.682842
v 13.095882 0.100000 0.682842
v 1.181038 -0.000000 -4.291566
v 1.181038 0.100000 -4.291566
v 14.955425 -0.000000 -4.291566
v 14.955425 0.100000 -4.291566
v 2.558477 0.100000 -4.291566
v 2.558477 -0.000000 -4.291566
v 13.095882 0.100000 -4.291566
v 13.095882 -0.000000 -4.291566
vn -1.0000 -0.0000 -0.0000
vn -0.0000 -0.0000 -1.0000
vn 1.0000 -0.0000 -0.0000
vn -0.0000 -1.0000 -0.0000
vn -0.0000 1.0000 -0.0000
vn -0.0000 -0.0000 1.0000
vt 0.827623 0.421753
vt 0.755025 0.421753
vt 0.755025 0.304914
vt 0.827623 0.304914
vt 0.682426 0.135000
vt 0.609828 0.135000
vt 0.609828 -0.000000
vt 0.682426 -0.000000
vt 0.827623 0.188075
vt 0.755025 0.188075
vt 0.755025 0.000000
vt 0.827623 0.000000
vt 0.755025 0.100000
vt 0.682426 0.100000
vt 0.492988 0.865000
vt 0.492988 1.000000
vt 0.304914 1.000000
vt 0.304914 0.865000
vt 0.987829 0.900000
vt 0.987829 1.000000
vt 0.314980 1.000000
vt 0.314980 0.900000
vt 0.987829 0.135000
vt 0.314980 0.135000
vt 0.492988 0.000000
vt 0.492989 0.100000
vt 0.304914 0.100000
vt 0.304914 -0.000000
vt 0.755025 0.865000
vt 0.682426 0.865000
vt 0.682426 1.000000
vt 0.609828 1.000000
vt 0.609828 0.900000
vt 0.682426 0.900000
vt 0.987829 -0.000000
vt 0.314980 0.000000
vt 0.755025 -0.000000
vt 0.755025 1.000000
vt 0.462627 0.516220
vt 0.462627 0.608015
vt 0.314980 0.608015
vt 0.314980 0.516220
vt 0.755025 0.609828
vt 0.827623 0.609828
vt 0.314980 0.800000
vt 0.462627 0.800000
vt 0.462627 0.900000
vt 0.609828 0.100000
vt 0.609828 0.865000
vt 0.304914 -0.000000
vt 0.304914 0.135000
vt 0.143780 0.135000
vt 0.143780 -0.000000
vt 0.609828 0.000000
vt 0.304914 0.900000
vt 0.143780 0.900000
vt 0.304914 1.000000
vt 0.143780 1.000000
vt 0.609828 1.000000
s 0
usemtl Material.001
f 25/1/1 26/2/1 4/3/1 3/4/1
f 15/5/2 13/6/2 8/7/2 7/8/2
f 27/9/3 28/10/3 6/11/3 5/12/3
f 11/13/3 12/14/3 22/14/3 23/13/3
f 32/15/4 27/16/4 5/17/4 14/18/4
f 29/19/5 26/20/5 2/21/5 12/22/5
f 31/23/5 29/19/5 12/22/5 16/24/5
f 25/25/4 30/26/4 11/27/4 1/28/4
f 14/29/6 16/30/6 12/14/6 11/13/6
f 3/31/2 4/32/2 10/33/2 9/34/2
f 5/12/3 6/11/3 19/11/3 20/12/3
f 28/35/5 31/23/5 16/24/5 6/36/5
f 30/26/4 32/15/4 14/18/4 11/27/4
f 9/34/2 10/33/2 13/6/2 15/5/2
f 23/13/6 22/14/6 18/8/6 17/37/6
f 20/38/6 19/31/6 24/30/6 21/29/6
f 1/28/4 11/27/4 23/27/4 17/28/4
f 6/39/5 16/40/5 24/41/5 19/42/5
f 2/43/1 1/44/1 17/44/1 18/43/1
f 14/18/4 5/17/4 20/17/4 21/18/4
f 16/30/1 14/29/1 21/29/1 24/30/1
f 12/22/5 2/45/5 18/46/5 22/47/5
f 9/48/4 15/49/4 32/15/4 30/26/4
f 8/50/5 13/51/5 31/52/5 28/53/5
f 3/54/4 9/48/4 30/26/4 25/25/4
f 13/51/5 10/55/5 29/56/5 31/52/5
f 10/55/5 4/57/5 26/58/5 29/56/5
f 15/49/4 7/59/4 27/16/4 32/15/4
f 7/4/3 8/3/3 28/10/3 27/9/3
f 1/44/1 2/43/1 26/2/1 25/1/1
