# Blender 4.3.0
# www.blender.org
mtllib base.mtl
o Cube.001
v 8.068230 1.295027 -15.091935
v 8.068230 1.412757 -15.091935
v 8.068231 1.295027 -12.030961
v 8.068231 1.412757 -12.030961
v 2.064011 1.295027 -15.091933
v 2.064011 1.412757 -15.091933
v 2.064012 1.295027 -12.030959
v 2.064012 1.412757 -12.030959
vn 1.0000 -0.0000 -0.0000
vn -0.0000 -0.0000 1.0000
vn -1.0000 -0.0000 -0.0000
vn -0.0000 -0.0000 -1.0000
vn -0.0000 -1.0000 -0.0000
vn -0.0000 1.0000 -0.0000
vt 0.375000 0.000000
vt 0.625000 0.000000
vt 0.625000 0.250000
vt 0.375000 0.250000
vt 0.625000 0.500000
vt 0.375000 0.500000
vt 0.625000 0.750000
vt 0.375000 0.750000
vt 0.625000 1.000000
vt 0.375000 1.000000
vt 0.023295 0.035014
vt 0.968893 0.035014
vt 0.968893 0.980611
vt 0.023295 0.980611
vt 0.005859 0.025391
vt 0.988281 0.025391
vt 0.988281 0.988281
vt 0.005859 0.988281
s 0
usemtl madera_de_piso
f 1/1/1 2/2/1 4/3/1 3/4/1
f 3/4/2 4/3/2 8/5/2 7/6/2
f 7/6/3 8/5/3 6/7/3 5/8/3
f 5/8/4 6/7/4 2/9/4 1/10/4
f 3/11/5 7/12/5 5/13/5 1/14/5
f 8/15/6 4/16/6 2/17/6 6/18/6
o Cube.003
v 14.072448 2.590055 -15.091936
v 14.072448 2.707785 -15.091936
v 14.072451 2.590055 -9.051552
v 14.072451 2.707785 -9.051552
v 8.068230 2.590055 -15.091934
v 8.068230 2.707785 -15.091934
v 8.068233 2.590055 -9.051550
v 8.068233 2.707785 -9.051550
vn 1.0000 -0.0000 -0.0000
vn -0.0000 -0.0000 1.0000
vn -1.0000 -0.0000 -0.0000
vn -0.0000 -0.0000 -1.0000
vn -0.0000 -1.0000 -0.0000
vn -0.0000 1.0000 -0.0000
vt 0.375000 0.000000
vt 0.625000 0.000000
vt 0.625000 0.250000
vt 0.375000 0.250000
vt 0.625000 0.500000
vt 0.375000 0.500000
vt 0.625000 0.750000
vt 0.375000 0.750000
vt 0.625000 1.000000
vt 0.375000 1.000000
vt 0.125000 0.500000
vt 0.125000 0.750000
vt 0.015625 0.005859
vt 0.990234 0.005859
vt 0.990234 0.978516
vt 0.015625 0.978516
s 0
usemtl madera_de_piso
f 9/19/7 10/20/7 12/21/7 11/22/7
f 11/22/8 12/21/8 16/23/8 15/24/8
f 15/24/9 16/23/9 14/25/9 13/26/9
f 13/26/10 14/25/10 10/27/10 9/28/10
f 11/29/11 15/24/11 13/26/11 9/30/11
f 16/31/12 12/32/12 10/33/12 14/34/12
o Cube.016
v 14.072449 1.295027 -15.091935
v 14.072449 1.412757 -15.091935
v 14.072451 1.295027 -7.851553
v 14.072451 1.412757 -7.851553
v 8.068231 1.295027 -15.091933
v 8.068231 1.412757 -15.091933
v 8.068233 1.295027 -7.851551
v 8.068233 1.412757 -7.851551
vn 1.0000 -0.0000 -0.0000
vn -0.0000 -0.0000 1.0000
vn -1.0000 -0.0000 -0.0000
vn -0.0000 -0.0000 -1.0000
vn -0.0000 -1.0000 -0.0000
vn -0.0000 1.0000 -0.0000
vt 0.375000 0.000000
vt 0.625000 0.000000
vt 0.625000 0.250000
vt 0.375000 0.250000
vt 0.625000 0.500000
vt 0.375000 0.500000
vt 0.625000 0.750000
vt 0.375000 0.750000
vt 0.625000 1.000000
vt 0.375000 1.000000
vt 0.029673 0.086314
vt 0.880483 0.086314
vt 0.880483 0.937124
vt 0.029673 0.937124
vt 0.875000 0.500000
vt 0.875000 0.750000
s 0
usemtl madera_de_piso
f 17/35/13 18/36/13 20/37/13 19/38/13
f 19/38/14 20/37/14 24/39/14 23/40/14
f 23/40/15 24/39/15 22/41/15 21/42/15
f 21/42/16 22/41/16 18/43/16 17/44/16
f 19/45/17 23/46/17 21/47/17 17/48/17
f 24/39/18 20/49/18 18/50/18 22/41/18
