# Blender 4.3.0
# www.blender.org
mtllib base.mtl
o Cube.007
v 13.954718 0.117730 -15.091930
v 13.954718 1.295027 -15.091930
v 14.072448 0.117730 -15.091930
v 14.072448 1.295027 -15.091930
v 13.954721 0.117730 -7.851550
v 13.954721 1.295027 -7.851550
v 14.072451 0.117730 -7.851550
v 14.072451 1.295027 -7.851550
v 13.954718 0.838076 -15.091930
v 14.072448 0.838076 -15.091930
v 14.072451 0.838076 -7.851550
v 13.954721 0.838076 -7.851550
v 14.072448 0.332400 -15.091930
v 14.072451 0.332400 -7.851550
v 13.954721 0.332400 -7.851550
v 13.954718 0.332400 -15.091930
v 14.072451 0.117730 -8.038174
v 14.072450 0.117730 -9.582170
v 14.072450 0.117730 -9.781954
v 14.072450 0.117730 -11.351908
v 14.072449 0.117730 -11.560818
v 14.072449 0.117730 -13.266743
v 14.072449 0.117730 -13.456433
v 14.072448 0.117730 -14.891676
v 14.072448 1.295027 -14.891676
v 14.072449 1.295027 -13.456433
v 14.072449 1.295027 -13.266743
v 14.072449 1.295027 -11.560818
v 14.072450 1.295027 -11.351908
v 14.072450 1.295027 -9.781954
v 14.072450 1.295027 -9.582170
v 14.072451 1.295027 -8.038174
v 13.954718 0.117730 -14.891676
v 13.954719 0.117730 -13.456433
v 13.954719 0.117730 -13.266743
v 13.954720 0.117730 -11.560818
v 13.954720 0.117730 -11.351907
v 13.954720 0.117730 -9.781954
v 13.954720 0.117730 -9.582170
v 13.954721 0.117730 -8.038174
v 13.954721 1.295027 -8.038174
v 13.954720 1.295027 -9.582170
v 13.954720 1.295027 -9.781954
v 13.954720 1.295027 -11.351908
v 13.954720 1.295027 -11.560818
v 13.954719 1.295027 -13.266743
v 13.954719 1.295027 -13.456433
v 13.954718 1.295027 -14.891676
v 13.954721 0.838076 -8.038174
v 13.954720 0.838076 -9.582170
v 13.954720 0.838076 -9.781954
v 13.954720 0.838076 -11.351908
v 13.954720 0.838076 -11.560818
v 13.954719 0.838076 -13.266743
v 13.954719 0.838076 -13.456433
v 13.954718 0.838076 -14.891676
v 14.072448 0.838076 -14.891676
v 14.072449 0.838076 -13.456433
v 14.072449 0.838076 -13.266743
v 14.072449 0.838076 -11.560818
v 14.072450 0.838076 -11.351908
v 14.072450 0.838076 -9.781954
v 14.072450 0.838076 -9.582170
v 14.072451 0.838076 -8.038174
v 14.072448 0.332400 -14.891676
v 14.072449 0.332400 -13.456433
v 14.072449 0.332400 -13.266743
v 14.072449 0.332400 -11.560818
v 14.072450 0.332400 -11.351908
v 14.072450 0.332400 -9.781954
v 14.072450 0.332400 -9.582170
v 14.072451 0.332400 -8.038174
v 13.954721 0.332400 -8.038174
v 13.954720 0.332400 -9.582170
v 13.954720 0.332400 -9.781954
v 13.954720 0.332400 -11.351908
v 13.954720 0.332400 -11.560818
v 13.954719 0.332400 -13.266743
v 13.954719 0.332400 -13.456433
v 13.954718 0.332400 -14.891676
v 14.072450 0.838076 -9.582170
v 14.072451 0.838076 -8.038174
v 14.072450 0.332400 -9.582170
v 14.072451 0.332400 -8.038174
v 14.022449 0.838076 -14.891676
v 14.022449 0.838076 -13.456433
v 14.022449 0.838076 -13.266743
v 14.022449 0.838076 -11.560818
v 14.022449 0.838076 -11.351908
v 14.022450 0.838076 -9.781954
v 14.022449 0.332400 -14.891676
v 14.022449 0.332400 -13.456433
v 14.022449 0.332400 -13.266743
v 14.022449 0.332400 -11.560818
v 14.022449 0.332400 -11.351908
v 14.022450 0.332400 -9.781954
v 14.022450 0.838076 -9.582170
v 14.022450 0.838076 -8.038174
v 14.022450 0.332400 -9.582170
v 14.022450 0.332400 -8.038174
v 14.004721 0.838076 -8.038174
v 14.004721 0.838076 -9.582170
v 14.004721 0.838076 -9.781954
v 14.004720 0.838076 -11.351908
v 14.004720 0.838076 -11.560818
v 14.004719 0.838076 -13.266743
v 14.004719 0.838076 -13.456433
v 14.004719 0.838076 -14.891676
v 14.004721 0.332400 -8.038174
v 14.004721 0.332400 -9.582170
v 14.004721 0.332400 -9.781954
v 14.004720 0.332400 -11.351908
v 14.004720 0.332400 -11.560818
v 14.004719 0.332400 -13.266743
v 14.004719 0.332400 -13.456433
v 14.004719 0.332400 -14.891676
vn -0.0000 -0.0000 -1.0000
vn 1.0000 -0.0000 -0.0000
vn -0.0000 -0.0000 1.0000
vn -1.0000 -0.0000 -0.0000
vn -0.0000 -1.0000 -0.0000
vn -0.0000 1.0000 -0.0000
vt 0.073115 0.245742
vt 0.073115 0.418802
vt 0.026889 0.418802
vt 0.026889 0.245742
vt 0.015625 0.252344
vt 0.015625 0.152344
vt 0.115625 0.152344
vt 0.115625 0.252344
vt 0.002575 0.677230
vt 0.002575 0.726335
vt 0.056161 0.726335
vt 0.056161 0.677230
vt 0.551668 0.027186
vt 0.783148 0.027674
vt 0.783148 0.106638
vt 0.551668 0.106149
vt 0.200000 0.100000
vt 0.100000 0.100000
vt 0.100000 0.000000
vt 0.200000 -0.000000
vt 0.200000 0.200000
vt 0.100000 0.200000
vt 0.100000 0.100000
vt 0.200000 0.100000
vt 0.783148 0.159372
vt 0.551668 0.158884
vt 0.002575 0.561558
vt 0.056161 0.561558
vt 0.015625 0.352344
vt 0.015625 0.252344
vt 0.115625 0.352344
vt 0.073115 0.591861
vt 0.026889 0.591861
vt 0.073115 0.764923
vt 0.026889 0.764923
vt 0.115625 0.152344
vt 0.015625 0.152344
vt 0.015625 0.052344
vt 0.115625 0.052344
vt 0.002575 0.457031
vt 0.056161 0.457031
vt 0.553621 0.027186
vt 0.695257 0.027674
vt 0.695257 0.173044
vt 0.553621 0.172555
vt 0.783148 0.173044
vt 0.670809 0.027186
vt 0.783148 0.512887
vt 0.670809 0.512399
vt 0.449609 0.173438
vt 0.449609 0.073438
vt 0.549609 0.073438
vt 0.549609 0.173438
vt 0.000000 0.500000
vt -0.000000 0.400000
vt 0.100000 0.400000
vt 0.100000 0.500000
vt 0.431596 0.540576
vt 0.480702 0.540576
vt 0.480702 0.808903
vt 0.431596 0.808903
vt 0.134892 0.473647
vt 0.134892 0.373647
vt 0.234892 0.373647
vt 0.234892 0.473647
vt 0.211664 0.155807
vt 0.111664 0.155807
vt 0.111664 0.055807
vt 0.211664 0.055807
vt 0.172121 0.272121
vt 0.072121 0.272121
vt 0.072121 0.172121
vt 0.172121 0.172121
vt 0.029282 0.628422
vt 0.101726 0.628422
vt 0.101726 0.963979
vt 0.029282 0.963979
vt 0.500000 0.500000
vt 0.400000 0.500000
vt 0.400000 0.400000
vt 0.500000 0.400000
vt 0.000000 0.600000
vt -0.000000 0.500000
vt 0.100000 0.600000
vt 0.200000 0.500000
vt 0.200000 0.600000
vt 0.068233 0.441880
vt 0.068233 0.341880
vt 0.168233 0.341880
vt 0.168233 0.441880
vt 0.923822 0.636002
vt 0.923822 0.641145
vt 0.900000 0.641145
vt 0.900000 0.636002
vt 0.072121 0.372121
vt 0.172121 0.372121
vt 0.400000 0.600000
vt 0.400000 0.500000
vt 0.500000 0.500000
vt 0.500000 0.600000
vt 0.600000 0.100000
vt 0.500000 0.100000
vt 0.500000 0.000000
vt 0.600000 -0.000000
vt 0.600000 0.300000
vt 0.500000 0.300000
vt 0.500000 0.200000
vt 0.600000 0.200000
vt 0.923822 0.646288
vt 0.923822 0.651431
vt 0.900000 0.651431
vt 0.900000 0.646288
vt 0.600000 0.600000
vt 0.500000 0.600000
vt 0.500000 0.500000
vt 0.600000 0.500000
vt 0.000000 0.700000
vt -0.000000 0.600000
vt 0.100000 0.700000
vt 0.200000 0.700000
vt 0.200000 0.600000
vt 0.300000 0.600000
vt 0.300000 0.700000
vt 0.300000 0.600000
vt 0.400000 0.700000
vt 0.500000 0.700000
vt 0.600000 0.600000
vt 0.600000 0.700000
vt 0.700000 0.100000
vt 0.600000 0.100000
vt 0.600000 0.000000
vt 0.700000 -0.000000
vt 0.700000 0.200000
vt 0.700000 0.100000
vt 0.700000 0.300000
vt 0.700000 0.400000
vt 0.600000 0.400000
vt 0.700000 0.500000
vt 0.600000 0.500000
vt 0.600000 0.400000
vt 0.700000 0.400000
vt 0.700000 0.600000
vt 0.700000 0.500000
vt 0.700000 0.700000
vt 0.600000 0.700000
vt 0.000000 0.800000
vt -0.000000 0.700000
vt 0.100000 0.800000
vt 0.100000 0.700000
vt 0.200000 0.800000
vt 0.300000 0.800000
vt 0.551668 0.512399
vt 0.776563 0.100000
vt 0.621875 0.100000
vt 0.621875 0.000000
vt 0.776563 0.000000
vt 0.195424 0.337229
vt 0.095424 0.337229
vt 0.095424 0.237229
vt 0.195424 0.237229
vt 0.210925 0.205487
vt 0.110925 0.205487
vt 0.110925 0.105487
vt 0.210925 0.105487
vt 0.051156 0.619415
vt 0.051156 0.519415
vt 0.151156 0.519415
vt 0.151156 0.619415
vt 0.072121 0.472121
vt 0.072121 0.372121
vt 0.172121 0.472121
vt 0.400000 0.900000
vt 0.400000 0.800000
vt 0.500000 0.800000
vt 0.500000 0.900000
vt 0.600000 0.800000
vt 0.600000 0.900000
vt 0.700000 0.800000
vt 0.700000 0.900000
vt 0.923822 0.656574
vt 0.900000 0.656574
vt 0.911470 0.001021
vt 0.959759 0.001020
vt 0.959759 0.222562
vt 0.911470 0.222562
vt 0.900000 0.400000
vt 0.800000 0.400000
vt 0.800000 0.300000
vt 0.900000 0.300000
vt 0.923822 0.661717
vt 0.900000 0.661717
vt 0.900000 0.500000
vt 0.800000 0.500000
vt 0.900000 0.600000
vt 0.800000 0.600000
vt 0.900000 0.700000
vt 0.800000 0.700000
vt 0.923822 0.661717
vt 0.923822 0.666860
vt 0.900000 0.666860
vt 0.900000 0.661717
vt 0.900000 0.800000
vt 0.800000 0.800000
vt 0.800000 0.700000
vt 0.900000 0.700000
vt 0.923822 0.672003
vt 0.900000 0.672003
vt 0.900000 0.900000
vt 0.800000 0.900000
vt 0.923822 0.677146
vt 0.900000 0.677146
vt 0.000000 1.000000
vt -0.000000 0.900000
vt 0.100000 0.900000
vt 0.100000 1.000000
vt 0.200000 0.900000
vt 0.200000 1.000000
vt 0.600000 1.000000
vt 0.700000 1.000000
vt 0.923822 0.682289
vt 0.900000 0.682289
vt 0.800000 0.900000
vt 0.800000 1.000000
vt 0.900000 0.900000
vt 0.900000 1.000000
vt 1.000000 0.100000
vt 0.900000 0.100000
vt 0.900000 0.000000
vt 1.000000 -0.000000
vt 0.923822 0.687432
vt 0.900000 0.687432
vt 1.000000 0.200000
vt 0.900000 0.200000
vt 0.900000 0.100000
vt 1.000000 0.100000
vt 1.000000 0.300000
vt 0.900000 0.200000
vt 1.000000 0.200000
vt 0.923822 0.687432
vt 0.923822 0.692575
vt 0.900000 0.692575
vt 0.900000 0.687432
vt 1.000000 0.500000
vt 1.000000 0.400000
vt 1.000000 0.600000
s 0
usemtl paredes_ext_int
f 9/1/1 2/2/1 4/3/1 10/4/1
f 64/5/2 32/6/2 8/7/2 11/8/2
f 11/9/3 8/10/3 6/11/3 12/12/3
f 56/13/4 48/14/4 2/15/4 9/16/4
f 17/17/5 7/18/5 5/19/5 40/20/5
f 25/21/6 4/22/6 2/23/6 48/24/6
f 80/13/4 56/14/4 9/25/4 16/26/4
f 14/27/3 11/9/3 12/12/3 15/28/3
f 72/29/2 64/30/2 11/8/2 14/31/2
f 16/2/1 9/32/1 10/33/1 13/3/1
f 1/32/1 16/34/1 13/35/1 3/33/1
f 17/36/2 72/37/2 14/38/2 7/39/2
f 7/40/3 14/27/3 15/28/3 5/41/3
f 33/42/4 80/43/4 16/44/4 1/45/4
f 5/42/4 15/14/4 73/46/4 40/45/4
f 40/47/4 73/14/4 74/48/4 39/49/4
f 39/50/4 74/51/4 75/52/4 38/53/4
f 38/47/4 75/14/4 76/48/4 37/49/4
f 37/42/4 76/14/4 77/46/4 36/45/4
f 36/47/4 77/14/4 78/48/4 35/49/4
f 35/42/4 78/14/4 79/46/4 34/45/4
f 34/47/4 79/14/4 80/48/4 33/49/4
f 3/54/2 13/55/2 65/56/2 24/57/2
f 24/58/2 65/59/2 66/60/2 23/61/2
f 23/62/2 66/63/2 67/64/2 22/65/2
f 22/58/2 67/59/2 68/60/2 21/61/2
f 21/66/2 68/67/2 69/68/2 20/69/2
f 20/58/2 69/59/2 70/60/2 19/61/2
f 19/70/2 70/71/2 71/72/2 18/73/2
f 18/58/2 71/59/2 72/60/2 17/61/2
f 13/74/2 10/75/2 57/76/2 65/77/2
f 60/78/1 68/79/1 94/80/1 88/81/1
f 66/82/2 58/83/2 59/57/2 67/84/2
f 70/84/6 69/57/6 95/85/6 96/86/6
f 68/87/2 60/88/2 61/89/2 69/90/2
f 67/91/3 59/92/3 87/93/3 93/94/3
f 70/95/2 62/71/2 63/70/2 71/96/2
f 63/97/6 64/98/6 82/99/6 81/100/6
f 15/42/4 12/14/4 49/46/4 73/45/4
f 55/101/5 56/102/5 108/103/5 107/104/5
f 74/42/4 50/14/4 51/46/4 75/45/4
f 78/105/6 77/106/6 113/107/6 114/108/6
f 76/42/4 52/14/4 53/46/4 77/45/4
f 75/109/1 51/110/1 103/111/1 111/112/1
f 78/42/4 54/14/4 55/46/4 79/45/4
f 50/113/3 74/114/3 110/115/3 102/116/3
f 8/117/6 32/118/6 41/84/6 6/119/6
f 32/119/6 31/84/6 42/86/6 41/120/6
f 31/120/6 30/121/6 43/122/6 42/123/6
f 30/123/6 29/124/6 44/97/6 43/125/6
f 29/125/6 28/97/6 45/100/6 44/126/6
f 28/126/6 27/100/6 46/127/6 45/128/6
f 27/129/6 26/130/6 47/131/6 46/132/6
f 26/133/6 25/108/6 48/101/6 47/134/6
f 3/135/5 24/105/5 33/108/5 1/133/5
f 24/136/5 23/137/5 34/105/5 33/135/5
f 23/138/5 22/139/5 35/140/5 34/141/5
f 22/142/5 21/113/5 36/116/5 35/143/5
f 21/144/5 20/145/5 37/113/5 36/142/5
f 20/146/5 19/147/5 38/119/5 37/148/5
f 19/148/5 18/149/5 39/120/5 38/150/5
f 18/150/5 17/120/5 40/123/5 39/151/5
f 12/42/4 6/14/4 41/46/4 49/45/4
f 49/13/4 41/14/4 42/48/4 50/152/4
f 50/42/4 42/14/4 43/46/4 51/45/4
f 51/13/4 43/14/4 44/48/4 52/152/4
f 52/153/4 44/154/4 45/155/4 53/156/4
f 53/13/4 45/14/4 46/48/4 54/152/4
f 54/42/4 46/14/4 47/46/4 55/45/4
f 55/13/4 47/14/4 48/48/4 56/152/4
f 10/157/2 4/158/2 25/159/2 57/160/2
f 57/13/2 25/14/2 26/48/2 58/152/2
f 58/161/2 26/162/2 27/163/2 59/164/2
f 59/13/2 27/14/2 28/48/2 60/152/2
f 60/165/2 28/166/2 29/167/2 61/168/2
f 61/13/2 29/14/2 30/48/2 62/152/2
f 62/169/2 30/170/2 31/96/2 63/171/2
f 63/13/2 31/14/2 32/48/2 64/152/2
f 61/172/5 62/173/5 90/174/5 89/175/5
f 64/175/6 72/174/6 84/176/6 82/177/6
f 72/177/6 71/176/6 83/178/6 84/179/6
f 71/110/6 63/180/6 81/181/6 83/111/6
f 91/182/2 85/183/2 86/184/2 92/185/2
f 93/182/2 87/183/2 88/184/2 94/185/2
f 95/182/2 89/183/2 90/184/2 96/185/2
f 99/182/2 97/183/2 98/184/2 100/185/2
f 81/186/5 82/187/5 98/188/5 97/189/5
f 69/180/3 61/190/3 89/191/3 95/181/3
f 84/192/6 83/193/6 99/187/6 100/186/6
f 62/194/1 70/195/1 96/193/1 90/192/1
f 57/196/5 58/197/5 86/195/5 85/194/5
f 83/198/3 81/199/3 97/200/3 99/201/3
f 66/202/6 65/203/6 91/204/6 92/205/6
f 82/199/1 84/206/1 100/207/1 98/200/1
f 59/208/5 60/209/5 88/203/5 87/202/5
f 65/206/3 57/210/3 85/211/3 91/207/3
f 68/212/6 67/213/6 93/214/6 94/215/6
f 58/215/1 66/214/1 92/216/1 86/217/1
f 109/182/4 101/183/4 102/184/4 110/185/4
f 111/182/4 103/183/4 104/184/4 112/185/4
f 113/182/4 105/183/4 106/184/4 114/185/4
f 115/182/4 107/183/4 108/184/4 116/185/4
f 52/218/3 76/177/3 112/179/3 104/219/3
f 77/210/1 53/220/1 105/221/1 113/211/1
f 49/219/5 50/179/5 102/222/5 101/223/5
f 80/223/6 79/222/6 115/224/6 116/225/6
f 54/226/3 78/227/3 114/228/3 106/229/3
f 79/220/1 55/230/1 107/231/1 115/221/1
f 74/232/6 73/233/6 109/234/6 110/235/6
f 51/236/5 52/189/5 104/237/5 103/238/5
f 56/42/3 80/14/3 116/46/3 108/45/3
f 73/239/1 49/240/1 101/241/1 109/242/1
f 76/243/6 75/192/6 111/186/6 112/244/6
f 53/245/5 54/194/5 106/192/5 105/243/5
