# Blender 4.3.0
# www.blender.org
mtllib base.mtl
o barandal.011
v 7.299636 0.382973 -7.102575
v 7.299636 0.440648 -7.102575
v 10.461098 0.382973 -7.102575
v 10.461098 0.440648 -7.102575
v 7.299638 0.382973 -6.984845
v 7.299638 0.440648 -6.984845
v 10.461099 0.382973 -6.984846
v 10.461099 0.440648 -6.984846
v 10.083134 0.382973 -7.102575
v 9.769660 0.382973 -7.102575
v 9.456187 0.382973 -7.102575
v 8.942714 0.382973 -7.102575
v 8.529241 0.382973 -7.102576
v 8.115767 0.382973 -7.102574
v 7.702294 0.382973 -7.102575
v 7.702294 0.440648 -7.102575
v 8.115767 0.440648 -7.102574
v 8.529241 0.440648 -7.102576
v 8.942714 0.440648 -7.102575
v 9.456187 0.440648 -7.102575
v 9.769660 0.440648 -7.102575
v 10.083134 0.440648 -7.102575
v 7.702295 0.382973 -6.984846
v 8.115768 0.382973 -6.984845
v 8.529242 0.382973 -6.984846
v 8.942715 0.382973 -6.984845
v 9.456188 0.382973 -6.984846
v 9.769661 0.382973 -6.984845
v 10.083135 0.382973 -6.984845
v 10.083135 0.440648 -6.984845
v 9.769661 0.440648 -6.984845
v 9.456188 0.440648 -6.984846
v 8.942715 0.440648 -6.984845
v 8.529242 0.440648 -6.984846
v 8.115768 0.440648 -6.984845
v 7.702295 0.440648 -6.984846
vn -0.0000 -0.0000 -1.0000
vn 1.0000 -0.0000 -0.0000
vn -0.0000 -0.0000 1.0000
vn -1.0000 -0.0000 -0.0000
vn -0.0000 -1.0000 -0.0000
vn -0.0000 1.0000 -0.0000
vt 0.184011 0.174562
vt 0.061025 0.174562
vt 0.061025 0.000000
vt 0.184011 0.000000
vt 0.828831 0.602441
vt 0.828831 0.540235
vt 0.901907 0.540235
vt 0.901907 0.602441
vt 0.299250 0.104116
vt 0.184015 0.104116
vt 0.184015 0.000000
vt 0.299250 0.000000
vt 0.828831 0.664646
vt 0.901907 0.664646
vt 0.512987 0.074895
vt 0.402554 0.074895
vt 0.402554 0.000000
vt 0.512987 0.000000
vt 0.623418 0.074895
vt 0.512987 0.074895
vt 0.623418 0.000000
vt 0.623418 1.000000
vt 0.512987 1.000000
vt 0.512987 0.824894
vt 0.623418 0.824895
vt 0.512987 0.699894
vt 0.623418 0.699895
vt 0.512987 0.574894
vt 0.623418 0.574895
vt 0.512987 0.449895
vt 0.623418 0.449895
vt 0.512987 0.324895
vt 0.623418 0.324895
vt 0.512987 0.199895
vt 0.623418 0.199895
vt 0.402554 1.000000
vt 0.402554 0.824895
vt 0.402554 0.699895
vt 0.402554 0.574895
vt 0.512987 0.574894
vt 0.402554 0.449895
vt 0.512987 0.449894
vt 0.402554 0.324895
vt 0.402554 0.199895
vt 0.299246 0.996899
vt 0.184011 0.996899
vt 0.184012 0.822337
vt 0.299247 0.822337
vt 0.184012 0.697724
vt 0.299247 0.697724
vt 0.184013 0.573112
vt 0.299248 0.573112
vt 0.184013 0.448500
vt 0.299248 0.448500
vt 0.184014 0.323887
vt 0.299249 0.323887
vt 0.184014 0.199275
vt 0.299249 0.199275
vt 0.184008 0.996899
vt 0.061022 0.996899
vt 0.061022 0.908285
vt 0.184008 0.908285
vt 0.061023 0.797624
vt 0.184008 0.797624
vt 0.061023 0.673012
vt 0.184009 0.673012
vt 0.061023 0.548399
vt 0.184009 0.548399
vt 0.061024 0.423787
vt 0.184010 0.423787
vt 0.061024 0.299175
vt 0.184010 0.299175
s 0
usemtl Poestes_de_mader.016
f 9/1/1 22/2/1 4/3/1 3/4/1
f 3/5/2 4/6/2 8/7/2 7/8/2
f 23/9/3 36/10/3 6/11/3 5/12/3
f 5/13/4 6/5/4 2/8/4 1/14/4
f 15/15/5 23/16/5 5/17/5 1/18/5
f 36/19/6 16/20/6 2/18/6 6/21/6
f 8/22/6 4/23/6 22/24/6 30/25/6
f 30/25/6 22/24/6 21/26/6 31/27/6
f 31/27/6 21/26/6 20/28/6 32/29/6
f 32/29/6 20/28/6 19/30/6 33/31/6
f 33/31/6 19/30/6 18/32/6 34/33/6
f 34/33/6 18/32/6 17/34/6 35/35/6
f 35/35/6 17/34/6 16/20/6 36/19/6
f 3/23/5 7/36/5 29/37/5 9/24/5
f 9/24/5 29/37/5 28/38/5 10/26/5
f 10/26/5 28/38/5 27/39/5 11/40/5
f 11/40/5 27/39/5 26/41/5 12/42/5
f 12/42/5 26/41/5 25/43/5 13/32/5
f 13/32/5 25/43/5 24/44/5 14/34/5
f 14/34/5 24/44/5 23/16/5 15/15/5
f 7/45/3 8/46/3 30/47/3 29/48/3
f 29/48/3 30/47/3 31/49/3 28/50/3
f 28/50/3 31/49/3 32/51/3 27/52/3
f 27/52/3 32/51/3 33/53/3 26/54/3
f 26/54/3 33/53/3 34/55/3 25/56/3
f 25/56/3 34/55/3 35/57/3 24/58/3
f 24/58/3 35/57/3 36/10/3 23/9/3
f 1/59/1 2/60/1 16/61/1 15/62/1
f 15/62/1 16/61/1 17/63/1 14/64/1
f 14/64/1 17/63/1 18/65/1 13/66/1
f 13/66/1 18/65/1 19/67/1 12/68/1
f 12/68/1 19/67/1 20/69/1 11/70/1
f 11/70/1 20/69/1 21/71/1 10/72/1
f 10/72/1 21/71/1 22/2/1 9/1/1
o Postes_de_madera.010
v 7.252258 0.117730 -7.102578
v 7.252258 1.000703 -7.081673
v 7.299634 0.117730 -7.082953
v 7.284853 1.000703 -7.068172
v 7.319259 0.117730 -7.035577
v 7.298354 1.000703 -7.035577
v 7.299634 0.117730 -6.988201
v 7.284853 1.000703 -7.002983
v 7.252258 0.117730 -6.968577
v 7.252258 1.000703 -6.989482
v 7.204882 0.117730 -6.988201
v 7.219664 1.000703 -7.002983
v 7.185258 0.117730 -7.035577
v 7.206163 1.000703 -7.035577
v 7.204882 0.117730 -7.082953
v 7.219664 1.000703 -7.068172
v 8.337665 0.117730 -7.102578
v 8.337665 1.000703 -7.081673
v 8.385040 0.117730 -7.082953
v 8.370258 1.000703 -7.068172
v 8.404665 0.117730 -7.035577
v 8.383759 1.000703 -7.035577
v 8.385040 0.117730 -6.988201
v 8.370258 1.000703 -7.002983
v 8.337665 0.117730 -6.968577
v 8.337665 1.000703 -6.989482
v 8.290288 0.117730 -6.988201
v 8.305070 1.000703 -7.002983
v 8.270664 0.117730 -7.035577
v 8.291569 1.000703 -7.035577
v 8.290288 0.117730 -7.082953
v 8.305070 1.000703 -7.068172
v 9.423070 0.117730 -7.102578
v 9.423070 1.000703 -7.081673
v 9.470447 0.117730 -7.082953
v 9.455665 1.000703 -7.068172
v 9.490070 0.117730 -7.035577
v 9.469166 1.000703 -7.035577
v 9.470447 0.117730 -6.988201
v 9.455665 1.000703 -7.002983
v 9.423070 0.117730 -6.968577
v 9.423070 1.000703 -6.989482
v 9.375694 0.117730 -6.988201
v 9.390476 1.000703 -7.002983
v 9.356070 0.117730 -7.035577
v 9.376975 1.000703 -7.035577
v 9.375694 0.117730 -7.082953
v 9.390476 1.000703 -7.068172
v 10.508476 0.117730 -7.102578
v 10.508476 1.000703 -7.081673
v 10.555853 0.117730 -7.082953
v 10.541071 1.000703 -7.068172
v 10.575477 0.117730 -7.035577
v 10.554571 1.000703 -7.035577
v 10.555853 0.117730 -6.988201
v 10.541071 1.000703 -7.002983
v 10.508476 0.117730 -6.968577
v 10.508476 1.000703 -6.989482
v 10.461100 0.117730 -6.988201
v 10.475882 1.000703 -7.002983
v 10.441476 0.117730 -7.035577
v 10.462381 1.000703 -7.035577
v 10.461100 0.117730 -7.082953
v 10.475882 1.000703 -7.068172
vn 0.3826 0.0219 -0.9237
vn 0.9237 0.0219 -0.3826
vn 0.9237 0.0219 0.3826
vn 0.3826 0.0219 0.9237
vn -0.3826 0.0219 0.9237
vn -0.9237 0.0219 0.3826
vn -0.0000 1.0000 -0.0000
vn -0.9237 0.0219 -0.3826
vn -0.3826 0.0219 -0.9237
vn -0.0000 -1.0000 -0.0000
vt 0.058037 1.000000
vt 0.058036 0.000362
vt 0.086276 0.000000
vt 0.099083 0.999474
vt 0.117191 0.000000
vt 0.157119 0.000362
vt 0.157119 1.000000
vt 0.185358 0.000000
vt 0.198166 0.999474
vt 0.216274 0.000000
vt 0.256202 0.000362
vt 0.256202 1.000000
vt 0.284441 0.000000
vt 0.297248 0.999474
vt 0.315357 0.000000
vt 0.355285 0.000362
vt 0.355285 1.000000
vt 0.424566 0.236518
vt 0.396331 0.208283
vt 0.396331 0.168353
vt 0.424566 0.140118
vt 0.464496 0.140118
vt 0.492731 0.168353
vt 0.492731 0.208283
vt 0.464496 0.236518
vt 0.383524 0.000000
vt 0.396331 0.999474
vt 0.000000 0.999474
vt 0.018108 0.000000
vt 0.396331 0.099079
vt 0.396331 0.041040
vt 0.437371 0.000000
vt 0.495410 0.000000
vt 0.536450 0.041040
vt 0.536450 0.099079
vt 0.495410 0.140118
vt 0.437371 0.140118
s 0
usemtl Poestes_de_mader
f 37/73/7 38/74/7 40/75/7 39/76/7
f 39/76/8 40/77/8 42/78/8 41/79/8
f 41/79/9 42/78/9 44/80/9 43/81/9
f 43/81/10 44/82/10 46/83/10 45/84/10
f 45/84/11 46/83/11 48/85/11 47/86/11
f 47/86/12 48/87/12 50/88/12 49/89/12
f 40/90/13 38/91/13 52/92/13 50/93/13 48/94/13 46/95/13 44/96/13 42/97/13
f 49/89/14 50/88/14 52/98/14 51/99/14
f 51/100/15 52/101/15 38/74/15 37/73/15
f 37/102/16 39/103/16 41/104/16 43/105/16 45/106/16 47/107/16 49/108/16 51/109/16
f 53/73/7 54/74/7 56/75/7 55/76/7
f 55/76/8 56/77/8 58/78/8 57/79/8
f 57/79/9 58/78/9 60/80/9 59/81/9
f 59/81/10 60/82/10 62/83/10 61/84/10
f 61/84/11 62/83/11 64/85/11 63/86/11
f 63/86/12 64/87/12 66/88/12 65/89/12
f 56/90/13 54/91/13 68/92/13 66/93/13 64/94/13 62/95/13 60/96/13 58/97/13
f 65/89/14 66/88/14 68/98/14 67/99/14
f 67/100/15 68/101/15 54/74/15 53/73/15
f 53/102/16 55/103/16 57/104/16 59/105/16 61/106/16 63/107/16 65/108/16 67/109/16
f 69/73/7 70/74/7 72/75/7 71/76/7
f 71/76/8 72/77/8 74/78/8 73/79/8
f 73/79/9 74/78/9 76/80/9 75/81/9
f 75/81/10 76/82/10 78/83/10 77/84/10
f 77/84/11 78/83/11 80/85/11 79/86/11
f 79/86/12 80/87/12 82/88/12 81/89/12
f 72/90/13 70/91/13 84/92/13 82/93/13 80/94/13 78/95/13 76/96/13 74/97/13
f 81/89/14 82/88/14 84/98/14 83/99/14
f 83/100/15 84/101/15 70/74/15 69/73/15
f 69/102/16 71/103/16 73/104/16 75/105/16 77/106/16 79/107/16 81/108/16 83/109/16
f 85/73/7 86/74/7 88/75/7 87/76/7
f 87/76/8 88/77/8 90/78/8 89/79/8
f 89/79/9 90/78/9 92/80/9 91/81/9
f 91/81/10 92/82/10 94/83/10 93/84/10
f 93/84/11 94/83/11 96/85/11 95/86/11
f 95/86/12 96/87/12 98/88/12 97/89/12
f 88/90/13 86/91/13 100/92/13 98/93/13 96/94/13 94/95/13 92/96/13 90/97/13
f 97/89/14 98/88/14 100/98/14 99/99/14
f 99/100/15 100/101/15 86/74/15 85/73/15
f 85/102/16 87/103/16 89/104/16 91/105/16 93/106/16 95/107/16 97/108/16 99/109/16
