# Blender 4.3.0
# www.blender.org
mtllib base.mtl
o Cube.006
v 2.181747 0.117730 -12.030958
v 2.181747 1.295027 -12.030958
v 2.064018 0.117730 -12.030958
v 2.064018 1.295027 -12.030958
v 2.181747 0.838076 -12.030958
v 2.064018 0.838076 -12.030958
v 2.064018 0.332400 -12.030958
v 2.181747 0.332400 -12.030958
v 2.064015 0.117730 -15.091932
v 2.064015 0.117730 -14.974204
v 2.064016 0.117730 -13.646528
v 2.064017 0.117730 -13.512528
v 2.064017 0.117730 -12.148689
v 2.064017 1.295027 -12.148689
v 2.064017 1.295027 -13.512528
v 2.064016 1.295027 -13.646528
v 2.064015 1.295027 -14.974204
v 2.064015 1.295027 -15.091932
v 2.181747 0.117730 -12.148689
v 2.181746 0.117730 -13.512528
v 2.181746 0.117730 -13.646528
v 2.181745 0.117730 -14.974204
v 2.181745 0.117730 -15.091932
v 2.181745 1.295027 -15.091932
v 2.181745 1.295027 -14.974204
v 2.181746 1.295027 -13.646528
v 2.181746 1.295027 -13.512528
v 2.181747 1.295027 -12.148689
v 2.181745 0.838076 -15.091932
v 2.181745 0.838076 -14.974204
v 2.181746 0.838076 -13.646528
v 2.181746 0.838076 -13.512528
v 2.181747 0.838076 -12.148689
v 2.064017 0.838076 -12.148689
v 2.064017 0.838076 -13.512528
v 2.064016 0.838076 -13.646528
v 2.064015 0.838076 -14.974204
v 2.064015 0.838076 -15.091932
v 2.064017 0.332400 -12.148689
v 2.064017 0.332400 -13.512528
v 2.064016 0.332400 -13.646528
v 2.064015 0.332400 -14.974204
v 2.064015 0.332400 -15.091932
v 2.181745 0.332400 -15.091932
v 2.181745 0.332400 -14.974204
v 2.181746 0.332400 -13.646528
v 2.181746 0.332400 -13.512528
v 2.181747 0.332400 -12.148689
v 2.114017 0.838076 -12.148689
v 2.114017 0.838076 -13.512528
v 2.114016 0.838076 -13.646528
v 2.114015 0.838076 -14.974204
v 2.114017 0.332400 -12.148689
v 2.114017 0.332400 -13.512528
v 2.114016 0.332400 -13.646528
v 2.114015 0.332400 -14.974204
v 2.131745 0.838076 -14.974204
v 2.131746 0.838076 -13.646528
v 2.131746 0.838076 -13.512528
v 2.131747 0.838076 -12.148689
v 2.131745 0.332400 -14.974204
v 2.131746 0.332400 -13.646528
v 2.131746 0.332400 -13.512528
v 2.131747 0.332400 -12.148689
vn -0.0000 -0.0000 1.0000
vn 1.0000 -0.0000 -0.0000
vn -0.0000 1.0000 -0.0000
vn -1.0000 -0.0000 -0.0000
vn -0.0000 -0.0000 -1.0000
vn -0.0000 -1.0000 -0.0000
vt 0.073115 0.245742
vt 0.073115 0.418802
vt 0.026889 0.418802
vt 0.026889 0.245742
vt 0.551668 0.027186
vt 0.783148 0.027674
vt 0.783148 0.106638
vt 0.551668 0.106149
vt 0.200000 0.200000
vt 0.100000 0.200000
vt 0.100000 0.100000
vt 0.200000 0.100000
vt 0.783148 0.159372
vt 0.551668 0.158884
vt 0.073115 0.591861
vt 0.026889 0.591861
vt 0.073115 0.764923
vt 0.026889 0.764923
vt 0.553621 0.027186
vt 0.695257 0.027674
vt 0.695257 0.173044
vt 0.553621 0.172555
vt 0.783148 0.173044
vt 0.670809 0.027186
vt 0.783148 0.512887
vt 0.670809 0.512399
vt 0.000000 0.500000
vt -0.000000 0.400000
vt 0.100000 0.400000
vt 0.100000 0.500000
vt 0.431596 0.540576
vt 0.480702 0.540576
vt 0.480702 0.808903
vt 0.431596 0.808903
vt 0.134892 0.473647
vt 0.134892 0.373647
vt 0.234892 0.373647
vt 0.234892 0.473647
vt 0.211664 0.155807
vt 0.111664 0.155807
vt 0.111664 0.055807
vt 0.211664 0.055807
vt 0.029282 0.628422
vt 0.101726 0.628422
vt 0.101726 0.963979
vt 0.029282 0.963979
vt 0.500000 0.500000
vt 0.400000 0.500000
vt 0.400000 0.400000
vt 0.500000 0.400000
vt 0.000000 0.600000
vt -0.000000 0.500000
vt 0.100000 0.600000
vt 0.068233 0.441880
vt 0.068233 0.341880
vt 0.168233 0.341880
vt 0.168233 0.441880
vt 0.923822 0.636002
vt 0.923822 0.641145
vt 0.900000 0.641145
vt 0.900000 0.636002
vt 0.600000 0.100000
vt 0.500000 0.100000
vt 0.500000 0.000000
vt 0.600000 -0.000000
vt 0.600000 0.300000
vt 0.500000 0.300000
vt 0.500000 0.200000
vt 0.600000 0.200000
vt 0.400000 0.700000
vt 0.400000 0.600000
vt 0.500000 0.600000
vt 0.500000 0.700000
vt 0.600000 0.600000
vt 0.600000 0.700000
vt 0.700000 0.100000
vt 0.600000 0.100000
vt 0.600000 0.000000
vt 0.700000 -0.000000
vt 0.700000 0.200000
vt 0.700000 0.100000
vt 0.700000 0.300000
vt 0.700000 0.400000
vt 0.600000 0.400000
vt 0.700000 0.500000
vt 0.600000 0.500000
vt 0.600000 0.400000
vt 0.700000 0.400000
vt 0.700000 0.600000
vt 0.600000 0.600000
vt 0.600000 0.500000
vt 0.700000 0.500000
vt 0.700000 0.700000
vt 0.600000 0.700000
vt 0.776563 0.100000
vt 0.621875 0.100000
vt 0.621875 0.000000
vt 0.776563 0.000000
vt 0.551668 0.512399
vt 0.195424 0.337229
vt 0.095424 0.337229
vt 0.095424 0.237229
vt 0.195424 0.237229
vt 0.210925 0.205487
vt 0.110925 0.205487
vt 0.110925 0.105487
vt 0.210925 0.105487
vt 0.051156 0.619415
vt 0.051156 0.519415
vt 0.151156 0.519415
vt 0.151156 0.619415
vt 0.911470 0.001021
vt 0.959759 0.001020
vt 0.959759 0.222562
vt 0.911470 0.222562
vt 0.900000 0.700000
vt 0.800000 0.700000
vt 0.800000 0.600000
vt 0.900000 0.600000
vt 0.900000 0.800000
vt 0.800000 0.800000
vt 0.800000 0.700000
vt 0.900000 0.700000
vt 0.900000 0.900000
vt 0.800000 0.900000
vt 0.923822 0.672003
vt 0.923822 0.677146
vt 0.900000 0.677146
vt 0.900000 0.672003
vt 0.000000 1.000000
vt -0.000000 0.900000
vt 0.100000 0.900000
vt 0.100000 1.000000
vt 0.200000 0.900000
vt 0.200000 1.000000
vt 0.202729 0.381256
vt 0.108102 0.381256
vt 0.108102 0.308495
vt 0.202729 0.308495
vt 0.800000 1.000000
vt 0.800000 0.900000
vt 0.900000 0.900000
vt 0.900000 1.000000
vt 1.000000 0.100000
vt 0.900000 0.100000
vt 0.900000 0.000000
vt 1.000000 -0.000000
vt 0.923822 0.682289
vt 0.923822 0.687432
vt 0.900000 0.687432
vt 0.900000 0.682289
vt 1.000000 0.600000
vt 0.900000 0.500000
vt 1.000000 0.500000
vt 0.088923 0.225341
vt 0.190235 0.225341
vt 0.190235 0.329044
vt 0.088923 0.329044
vt 0.088923 0.443805
vt 0.190235 0.443805
vt 0.190235 0.492524
vt 0.088923 0.492524
s 0
usemtl paredes_ext_int.007
f 5/1/1 2/2/1 4/3/1 6/4/1
f 33/5/2 28/6/2 2/7/2 5/8/2
f 14/9/3 4/10/3 2/11/3 28/12/3
f 48/5/2 33/6/2 5/13/2 8/14/2
f 8/2/1 5/15/1 6/16/1 7/3/1
f 1/15/1 8/17/1 7/18/1 3/16/1
f 19/19/2 48/20/2 8/21/2 1/22/2
f 23/19/2 44/6/2 45/23/2 22/22/2
f 22/24/2 45/6/2 46/25/2 21/26/2
f 21/19/2 46/6/2 47/23/2 20/22/2
f 20/24/2 47/6/2 48/25/2 19/26/2
f 3/27/4 7/28/4 39/29/4 13/30/4
f 13/31/4 39/32/4 40/33/4 12/34/4
f 12/35/4 40/36/4 41/37/4 11/38/4
f 11/31/4 41/32/4 42/33/4 10/34/4
f 10/39/4 42/40/4 43/41/4 9/42/4
f 7/43/4 6/44/4 34/45/4 39/46/4
f 37/47/1 42/48/1 56/49/1 52/50/1
f 40/51/4 35/52/4 36/30/4 41/53/4
f 42/54/4 37/55/4 38/56/4 43/57/4
f 41/58/5 36/59/5 51/60/5 55/61/5
f 32/62/6 33/63/6 60/64/6 59/65/6
f 46/66/3 45/67/3 61/68/3 62/69/3
f 44/19/2 29/6/2 30/23/2 45/22/2
f 46/19/2 31/6/2 32/23/2 47/22/2
f 18/70/3 17/71/3 25/72/3 24/73/3
f 17/73/3 16/72/3 26/74/3 25/75/3
f 16/76/3 15/77/3 27/78/3 26/79/3
f 15/80/3 14/69/3 28/62/3 27/81/3
f 3/82/6 13/66/6 19/69/6 1/80/6
f 13/83/6 12/84/6 20/66/6 19/82/6
f 12/85/6 11/86/6 21/87/6 20/88/6
f 11/89/6 10/90/6 22/91/6 21/92/6
f 10/93/6 9/94/6 23/90/6 22/89/6
f 29/95/2 24/96/2 25/97/2 30/98/2
f 30/5/2 25/6/2 26/25/2 31/99/2
f 31/19/2 26/6/2 27/23/2 32/22/2
f 32/5/2 27/6/2 28/25/2 33/99/2
f 6/100/4 4/101/4 14/102/4 34/103/4
f 34/5/4 14/6/4 15/25/4 35/99/4
f 35/104/4 15/105/4 16/106/4 36/107/4
f 36/5/4 16/6/4 17/25/4 37/99/4
f 37/108/4 17/109/4 18/110/4 38/111/4
f 53/112/4 49/113/4 50/114/4 54/115/4
f 55/112/4 51/113/4 52/114/4 56/115/4
f 34/116/6 35/117/6 50/118/6 49/119/6
f 40/120/3 39/121/3 53/122/3 54/123/3
f 36/124/6 37/125/6 52/121/6 51/120/6
f 39/126/5 34/127/5 49/128/5 53/129/5
f 42/130/3 41/131/3 55/132/3 56/133/3
f 35/133/1 40/132/1 54/134/1 50/135/1
f 61/112/2 57/113/2 58/114/2 62/115/2
f 63/112/2 59/113/2 60/114/2 64/115/2
f 45/136/1 30/137/1 57/138/1 61/139/1
f 48/140/3 47/141/3 63/142/3 64/143/3
f 31/144/5 46/145/5 62/146/5 58/147/5
f 47/148/1 32/149/1 59/150/1 63/151/1
f 33/19/5 48/6/5 64/23/5 60/22/5
f 30/152/6 31/119/6 58/153/6 57/154/6
f 18/155/5 24/156/5 29/157/5 38/158/5
f 43/159/5 38/158/5 29/157/5 44/160/5
f 23/161/5 9/162/5 43/159/5 44/160/5
