# Blender 4.3.0
# www.blender.org
mtllib base.mtl
o Cube.026
v 11.373949 1.295028 -7.851548
v 10.742663 1.295028 -7.851548
v 10.742663 1.295028 -7.969278
v 11.373949 1.295028 -7.969278
v 10.742663 0.838076 -7.969278
v 11.373949 0.838076 -7.969278
v 11.373949 0.838076 -7.851548
v 10.742663 0.838076 -7.851548
vn -0.0000 -0.0000 1.0000
vn -0.0000 -0.0000 -1.0000
vn -0.0000 1.0000 -0.0000
vn -0.0000 -1.0000 -0.0000
vt 0.551668 0.027186
vt 0.783148 0.027674
vt 0.783148 0.262888
vt 0.551668 0.262399
vt 0.551668 0.247889
vt 0.783148 0.248377
vt 0.783148 0.512887
vt 0.551668 0.512399
vt 0.416254 0.269304
vt 0.387373 0.269305
vt 0.387373 0.000001
vt 0.416254 0.000000
vt 0.339564 0.269305
vt 0.368445 0.269305
vt 0.368445 0.538609
vt 0.339564 0.538609
s 0
usemtl paredes_ext_int
f 7/1/1 1/2/1 2/3/1 8/4/1
f 5/5/2 3/6/2 4/7/2 6/8/2
f 2/9/3 1/10/3 4/11/3 3/12/3
f 5/13/4 6/14/4 7/15/4 8/16/4
